<?xml version="1.0" encoding="UTF-8" standalone="no"?><svg xmlns="http://www.w3.org/2000/svg" xmlns:xlink="http://www.w3.org/1999/xlink" contentScriptType="application/ecmascript" contentStyleType="text/css" height="749px" preserveAspectRatio="none" style="width:1538px;height:749px;" version="1.1" viewBox="0 0 1538 749" width="1538px" zoomAndPan="magnify"><defs><filter height="300%" id="feak93ma5zkcr" width="300%" x="-1" y="-1"><feGaussianBlur result="blurOut" stdDeviation="2.0"/><feColorMatrix in="blurOut" result="blurOut2" type="matrix" values="0 0 0 0 0 0 0 0 0 0 0 0 0 0 0 0 0 0 .4 0"/><feOffset dx="4.0" dy="4.0" in="blurOut2" result="blurOut3"/><feBlend in="SourceGraphic" in2="blurOut3" mode="normal"/></filter></defs><g><!--MD5=[bdf6121bd6610a6398ec7be88fbe1238]
cluster DualSense--><polygon fill="#FFFFFF" filter="url(#feak93ma5zkcr)" points="808,24,897,24,904,46.2969,924,46.2969,924,133,808,133,808,24" style="stroke: #000000; stroke-width: 1.5;"/><line style="stroke: #000000; stroke-width: 1.5;" x1="808" x2="904" y1="46.2969" y2="46.2969"/><text fill="#000000" font-family="sans-serif" font-size="14" font-weight="bold" lengthAdjust="spacingAndGlyphs" textLength="83" x="812" y="38.9951">DualSense</text><!--MD5=[a647931ab074a0ba2df1015ac25869ee]
cluster Wi-Fi--><path d="M51.1025,171.1078 C81.8096,122.746 117.4671,124.3362 145.024,174.1224 C171.0442,123.3177 217.3876,127.6291 243.2094,174.3221 C279.1362,127.7175 320.2808,130.5327 350.8348,180.3212 C385.2736,131.2275 421.5917,133.9086 455.4078,180.9982 C475.2465,136.8673 518.6898,130.8927 545.0374,174.3365 C577.1089,123.9666 619.8302,112.9579 658.2294,167.5101 C682.402,126.5918 721.8687,122.0788 745.4832,168.0704 C783.0766,122.2236 811.9575,129.1295 842.8003,175.2163 C880.2029,118.5084 920.8529,115.4906 960.163,173.2609 C989.9789,127.3631 1024.7582,126.7024 1054.9586,172.8649 C1088.0265,126.4331 1127.5756,118.0802 1161.0781,172.4073 C1191.3092,126.5406 1220.9695,125.2507 1252.4171,171.1971 C1292.2077,115.8262 1328.3423,120.357 1364.2019,175.1847 C1389.3912,134.9639 1425.7799,126.7624 1454,172 C1458.6133,164.4145 1466.0515,164.6577 1469.8446,172.8251 C1522.7205,212.7506 1520.2368,262.9087 1462.5898,296.3427 C1525.7327,328.6576 1522.2249,383.1409 1467.5916,420.2117 C1524.3198,461.3158 1517.116,498.3179 1469.0779,540.7143 C1526.7639,585.5053 1504.5367,637.3576 1447,661 C1452.8426,653.1355 1459.945,655.7116 1463.6938,663.2668 C1435.1771,713.8397 1400.9522,723.11 1363.429,672.1618 C1336.0205,731.9552 1294.3889,723.5133 1258.6624,680.6508 C1231.2084,731.9478 1184.3146,729.5681 1158.6892,678.8586 C1125.8692,728.3389 1079.5053,730.7037 1048.808,676.6067 C1020.3072,732.2321 983.9249,726.8559 949.9176,682.0275 C916.389,720.35 883.7175,727.672 852.422,679.5101 C819.9249,735.4426 774.5501,737.415 743.2296,678.3926 C715.1367,721.9393 680.7135,727.6333 651.5903,679.4216 C627.921,727.3973 579.4856,727.4831 554.5063,680.7646 C513.0705,734.3718 479.4735,722.8554 443.4045,674.8939 C417.5264,714.8135 374.5271,728.2457 347.1596,676.457 C318.3548,718.5847 265.2057,723.0955 239.8933,672.4202 C205.3028,714.6637 173.2707,716.1248 138.2883,672.886 C92.7897,718.2466 57.2503,713.2709 30,654 C35.7462,653.0524 38.4462,657.5703 36.758,662.5198 C-13.8432,624.3037 -24.1946,588.9231 31.6766,546.0614 C-26.4952,514.3064 -24.9985,455.3013 36.0098,427.9176 C-21.0187,390.8867 -33.9249,343.1209 27.872,298.6118 C-41.247,251.4397 -35.0412,202.5285 37,165 C44.4522,159.6585 50.1271,161.4948 51.1025,171.1078 " fill="#FFFFFF" style="stroke: #000000; stroke-width: 1.5;"/><text fill="#000000" font-family="sans-serif" font-size="14" font-weight="bold" lengthAdjust="spacingAndGlyphs" textLength="38" x="723" y="182.9951">Wi-Fi</text><!--MD5=[e6959f4ef13c5092db05b3426e5f3994]
cluster Linux PC--><polygon fill="#FFFFFF" filter="url(#feak93ma5zkcr)" points="46,200,120,200,127,222.2969,948,222.2969,948,522,46,522,46,200" style="stroke: #000000; stroke-width: 1.5;"/><line style="stroke: #000000; stroke-width: 1.5;" x1="46" x2="127" y1="222.2969" y2="222.2969"/><text fill="#000000" font-family="sans-serif" font-size="14" font-weight="bold" lengthAdjust="spacingAndGlyphs" textLength="68" x="50" y="214.9951">Linux PC</text><!--MD5=[8c177ff27b1912b522ca976505259a84]
cluster PC_CTRL--><rect fill="#FFFFFF" filter="url(#feak93ma5zkcr)" height="141" style="stroke: #000000; stroke-width: 1.5;" width="245" x="679" y="243"/><rect fill="#FFFFFF" height="10" style="stroke: #000000; stroke-width: 1.5;" width="15" x="904" y="248"/><rect fill="#FFFFFF" height="2" style="stroke: #000000; stroke-width: 1.5;" width="4" x="902" y="250"/><rect fill="#FFFFFF" height="2" style="stroke: #000000; stroke-width: 1.5;" width="4" x="902" y="254"/><text fill="#000000" font-family="sans-serif" font-size="14" font-weight="bold" lengthAdjust="spacingAndGlyphs" textLength="79" x="762" y="268.9951">Controller</text><!--MD5=[d6e50becd95be6c155f56c5bccddaec5]
cluster PC_STREAMER--><rect fill="#FFFFFF" filter="url(#feak93ma5zkcr)" height="141" style="stroke: #000000; stroke-width: 1.5;" width="585" x="70" y="243"/><rect fill="#FFFFFF" height="10" style="stroke: #000000; stroke-width: 1.5;" width="15" x="635" y="248"/><rect fill="#FFFFFF" height="2" style="stroke: #000000; stroke-width: 1.5;" width="4" x="633" y="250"/><rect fill="#FFFFFF" height="2" style="stroke: #000000; stroke-width: 1.5;" width="4" x="633" y="254"/><text fill="#000000" font-family="sans-serif" font-size="14" font-weight="bold" lengthAdjust="spacingAndGlyphs" textLength="73" x="326" y="268.9951">Streamer</text><!--MD5=[b97f84ed6f5926d554d74eb198c9b251]
cluster ESP32-S3--><polygon fill="#FFFFFF" filter="url(#feak93ma5zkcr)" points="972,408,1053,408,1060,430.2969,1438,430.2969,1438,645,972,645,972,408" style="stroke: #000000; stroke-width: 1.5;"/><line style="stroke: #000000; stroke-width: 1.5;" x1="972" x2="1060" y1="430.2969" y2="430.2969"/><text fill="#000000" font-family="sans-serif" font-size="14" font-weight="bold" lengthAdjust="spacingAndGlyphs" textLength="75" x="976" y="422.9951">ESP32-S3</text><!--MD5=[35e703a6d1130e7d8043004459be5521]
entity IF_BT_DS--><ellipse cx="866" cy="88" fill="#FEFECE" filter="url(#feak93ma5zkcr)" rx="8" ry="8" style="stroke: #A80036; stroke-width: 2.0;"/><text fill="#000000" font-family="sans-serif" font-size="14" lengthAdjust="spacingAndGlyphs" textLength="68" x="832" y="117.9951">Bluetooth</text><!--MD5=[ae0b48ff5d6b3dedc5d65ce0a278aa28]
entity PC_WEB--><rect fill="#FEFECE" filter="url(#feak93ma5zkcr)" height="36.2969" style="stroke: #A80036; stroke-width: 1.5;" width="90" x="88" y="470"/><rect fill="#FEFECE" height="5" style="stroke: #A80036; stroke-width: 1.5;" width="10" x="83" y="475"/><rect fill="#FEFECE" height="5" style="stroke: #A80036; stroke-width: 1.5;" width="10" x="83" y="496.2969"/><text fill="#000000" font-family="sans-serif" font-size="14" lengthAdjust="spacingAndGlyphs" textLength="70" x="98" y="492.9951">Web page</text><!--MD5=[1b69c2be7bb9d61d5098d51463b81ada]
entity IF_BT_PC_CTRL--><ellipse cx="866" cy="323" fill="#FEFECE" filter="url(#feak93ma5zkcr)" rx="8" ry="8" style="stroke: #A80036; stroke-width: 2.0;"/><text fill="#000000" font-family="sans-serif" font-size="14" lengthAdjust="spacingAndGlyphs" textLength="68" x="832" y="352.9951">Bluetooth</text><!--MD5=[69a8e0f681643e96825f2a3bfe0797cb]
entity IF_WS_CLIENT_PC_CTRL--><ellipse cx="742" cy="323" fill="#FEFECE" filter="url(#feak93ma5zkcr)" rx="8" ry="8" style="stroke: #A80036; stroke-width: 2.0;"/><text fill="#000000" font-family="sans-serif" font-size="14" lengthAdjust="spacingAndGlyphs" textLength="79" x="702.5" y="352.9951">WebSocket</text><text fill="#000000" font-family="sans-serif" font-size="14" lengthAdjust="spacingAndGlyphs" textLength="58" x="702.5" y="369.292">Client [/]</text><!--MD5=[8852251950aa4f4b8d3e0ed8aa284e7b]
entity IF_WS_CLIENT_PC_STREAMER_CTRL--><ellipse cx="592" cy="323" fill="#FEFECE" filter="url(#feak93ma5zkcr)" rx="8" ry="8" style="stroke: #A80036; stroke-width: 2.0;"/><text fill="#000000" font-family="sans-serif" font-size="14" lengthAdjust="spacingAndGlyphs" textLength="79" x="552.5" y="352.9951">WebSocket</text><text fill="#000000" font-family="sans-serif" font-size="14" lengthAdjust="spacingAndGlyphs" textLength="58" x="552.5" y="369.292">Client [/]</text><!--MD5=[9502f94c31a4d1a055e0583ba11d855b]
entity IF_WS_CLIENT_PC_STREAMER_STREAM--><ellipse cx="449" cy="323" fill="#FEFECE" filter="url(#feak93ma5zkcr)" rx="8" ry="8" style="stroke: #A80036; stroke-width: 2.0;"/><text fill="#000000" font-family="sans-serif" font-size="14" lengthAdjust="spacingAndGlyphs" textLength="79" x="396" y="352.9951">WebSocket</text><text fill="#000000" font-family="sans-serif" font-size="14" lengthAdjust="spacingAndGlyphs" textLength="106" x="396" y="369.292">Client [/stream]</text><!--MD5=[157b3313e172692954d90cbce56b4623]
entity IF_WS_CLIENT_PC_STREAMER_TELEMETRY--><ellipse cx="284" cy="323" fill="#FEFECE" filter="url(#feak93ma5zkcr)" rx="8" ry="8" style="stroke: #A80036; stroke-width: 2.0;"/><text fill="#000000" font-family="sans-serif" font-size="14" lengthAdjust="spacingAndGlyphs" textLength="79" x="222.5" y="352.9951">WebSocket</text><text fill="#000000" font-family="sans-serif" font-size="14" lengthAdjust="spacingAndGlyphs" textLength="123" x="222.5" y="369.292">Client [/telemetry]</text><!--MD5=[17a7beb679be63d7e60fe876ed2dea2b]
entity IF_WS_SERVER_PC_STREAMER--><ellipse cx="133" cy="323" fill="#FEFECE" filter="url(#feak93ma5zkcr)" rx="8" ry="8" style="stroke: #A80036; stroke-width: 2.0;"/><text fill="#000000" font-family="sans-serif" font-size="14" lengthAdjust="spacingAndGlyphs" textLength="79" x="93.5" y="352.9951">WebSocket</text><text fill="#000000" font-family="sans-serif" font-size="14" lengthAdjust="spacingAndGlyphs" textLength="63" x="93.5" y="369.292">Server [/]</text><!--MD5=[aefc414ba321c3836af0adf24fbc5676]
entity RB_MOTOR--><rect fill="#FEFECE" filter="url(#feak93ma5zkcr)" height="36.2969" style="stroke: #A80036; stroke-width: 1.5;" width="60" x="1345" y="593"/><rect fill="#FEFECE" height="5" style="stroke: #A80036; stroke-width: 1.5;" width="10" x="1340" y="598"/><rect fill="#FEFECE" height="5" style="stroke: #A80036; stroke-width: 1.5;" width="10" x="1340" y="619.2969"/><text fill="#000000" font-family="sans-serif" font-size="14" lengthAdjust="spacingAndGlyphs" textLength="40" x="1355" y="615.9951">Motor</text><!--MD5=[32efbcd5f3235b6d280157cdd2ffaba4]
entity RB_TELEMETRY--><rect fill="#FEFECE" filter="url(#feak93ma5zkcr)" height="36.2969" style="stroke: #A80036; stroke-width: 1.5;" width="89" x="1015.5" y="593"/><rect fill="#FEFECE" height="5" style="stroke: #A80036; stroke-width: 1.5;" width="10" x="1010.5" y="598"/><rect fill="#FEFECE" height="5" style="stroke: #A80036; stroke-width: 1.5;" width="10" x="1010.5" y="619.2969"/><text fill="#000000" font-family="sans-serif" font-size="14" lengthAdjust="spacingAndGlyphs" textLength="69" x="1025.5" y="615.9951">Telemetry</text><!--MD5=[317b8ae5f9f4087ded4103025edc4158]
entity RB_CAMERA--><rect fill="#FEFECE" filter="url(#feak93ma5zkcr)" height="36.2969" style="stroke: #A80036; stroke-width: 1.5;" width="73" x="1193.5" y="593"/><rect fill="#FEFECE" height="5" style="stroke: #A80036; stroke-width: 1.5;" width="10" x="1188.5" y="598"/><rect fill="#FEFECE" height="5" style="stroke: #A80036; stroke-width: 1.5;" width="10" x="1188.5" y="619.2969"/><text fill="#000000" font-family="sans-serif" font-size="14" lengthAdjust="spacingAndGlyphs" textLength="53" x="1203.5" y="615.9951">Camera</text><!--MD5=[917c7865713bddfe9cb8678d7fd779d8]
entity IF_WS_SERVER_RB_CTRL--><ellipse cx="1375" cy="488" fill="#FEFECE" filter="url(#feak93ma5zkcr)" rx="8" ry="8" style="stroke: #A80036; stroke-width: 2.0;"/><text fill="#000000" font-family="sans-serif" font-size="14" lengthAdjust="spacingAndGlyphs" textLength="79" x="1335.5" y="517.9951">WebSocket</text><text fill="#000000" font-family="sans-serif" font-size="14" lengthAdjust="spacingAndGlyphs" textLength="63" x="1335.5" y="534.292">Server [/]</text><!--MD5=[5642cd0eec574521f8db52f1452905d8]
entity IF_WS_SERVER_RB_STREAM--><ellipse cx="1230" cy="488" fill="#FEFECE" filter="url(#feak93ma5zkcr)" rx="8" ry="8" style="stroke: #A80036; stroke-width: 2.0;"/><text fill="#000000" font-family="sans-serif" font-size="14" lengthAdjust="spacingAndGlyphs" textLength="79" x="1174.5" y="517.9951">WebSocket</text><text fill="#000000" font-family="sans-serif" font-size="14" lengthAdjust="spacingAndGlyphs" textLength="111" x="1174.5" y="534.292">Server [/stream]</text><!--MD5=[6611d635022dff69098c777f9991a079]
entity IF_WS_SERVER_RB_TELEMETRY--><ellipse cx="1060" cy="488" fill="#FEFECE" filter="url(#feak93ma5zkcr)" rx="8" ry="8" style="stroke: #A80036; stroke-width: 2.0;"/><text fill="#000000" font-family="sans-serif" font-size="14" lengthAdjust="spacingAndGlyphs" textLength="79" x="996" y="517.9951">WebSocket</text><text fill="#000000" font-family="sans-serif" font-size="14" lengthAdjust="spacingAndGlyphs" textLength="128" x="996" y="534.292">Server [/telemetry]</text><!--MD5=[8ff06afa8c0d9194b660dd292dec3597]
link IF_WS_SERVER_PC_STREAMER to PC_WEB--><path d="M133,332.34 C133,332.34 133,464.96 133,464.96 " fill="none" id="IF_WS_SERVER_PC_STREAMER-&gt;PC_WEB" style="stroke: #A80036; stroke-width: 1.0;"/><polygon fill="#A80036" points="133,469.96,137,460.96,133,464.96,129,460.96,133,469.96" style="stroke: #A80036; stroke-width: 1.0;"/><!--MD5=[3fa074fb25ec91f6dda535422222bd9d]
link IF_WS_SERVER_RB_CTRL to RB_MOTOR--><path d="M1375,497.24 C1375,497.24 1375,587.64 1375,587.64 " fill="none" id="IF_WS_SERVER_RB_CTRL-&gt;RB_MOTOR" style="stroke: #A80036; stroke-width: 1.0;"/><polygon fill="#A80036" points="1375,592.64,1379,583.64,1375,587.64,1371,583.64,1375,592.64" style="stroke: #A80036; stroke-width: 1.0;"/><!--MD5=[766052f033cefbcc87509d7d01a0abfa]
reverse link IF_WS_SERVER_RB_TELEMETRY to RB_TELEMETRY--><path d="M1060,502.24 C1060,502.24 1060,592.64 1060,592.64 " fill="none" id="IF_WS_SERVER_RB_TELEMETRY&lt;-RB_TELEMETRY" style="stroke: #A80036; stroke-width: 1.0;"/><polygon fill="#A80036" points="1060,497.24,1056.0257,506.2514,1060.0143,502.24,1064.0257,506.2285,1060,497.24" style="stroke: #A80036; stroke-width: 1.0;"/><!--MD5=[8224029f92d135f908e979d4246eaff4]
reverse link IF_WS_SERVER_RB_STREAM to RB_CAMERA--><path d="M1230,502.24 C1230,502.24 1230,592.64 1230,592.64 " fill="none" id="IF_WS_SERVER_RB_STREAM&lt;-RB_CAMERA" style="stroke: #A80036; stroke-width: 1.0;"/><polygon fill="#A80036" points="1230,497.24,1226.0257,506.2514,1230.0143,502.24,1234.0257,506.2285,1230,497.24" style="stroke: #A80036; stroke-width: 1.0;"/><!--MD5=[381595354808746c73a554d4c808dd75]
link IF_BT_DS to IF_BT_PC_CTRL--><path d="M866,97.21 C866,97.21 866,308.85 866,308.85 " fill="none" id="IF_BT_DS-&gt;IF_BT_PC_CTRL" style="stroke: #A80036; stroke-width: 1.0;"/><polygon fill="#A80036" points="866,313.85,870,304.85,866,308.85,862,304.85,866,313.85" style="stroke: #A80036; stroke-width: 1.0;"/><!--MD5=[ea48a664d9734cdb693c81f7d9c32445]
link IF_WS_CLIENT_PC_CTRL to IF_WS_SERVER_RB_CTRL--><path d="M742.12,360 C752.1,360 1390.67,360 1390.67,360 C1390.67,360 1390.67,482.91 1390.67,482.91 " fill="none" id="IF_WS_CLIENT_PC_CTRL-&gt;IF_WS_SERVER_RB_CTRL" style="stroke: #A80036; stroke-width: 1.0;"/><polygon fill="#A80036" points="1390.67,487.91,1394.67,478.91,1390.67,482.91,1386.67,478.91,1390.67,487.91" style="stroke: #A80036; stroke-width: 1.0;"/><!--MD5=[c6f3ebbdd6b7009aba7e0bbd6625a04a]
reverse link IF_WS_CLIENT_PC_STREAMER_STREAM to IF_WS_SERVER_RB_STREAM--><path d="M449,337.11 C449,337.11 449,418 449,418 C449,418 1230,418 1230,418 C1230,418 1230,459.87 1230,478.85 " fill="none" id="IF_WS_CLIENT_PC_STREAMER_STREAM&lt;-IF_WS_SERVER_RB_STREAM" style="stroke: #A80036; stroke-width: 1.0;"/><polygon fill="#A80036" points="449,332.11,445,341.11,449,337.11,453,341.11,449,332.11" style="stroke: #A80036; stroke-width: 1.0;"/><!--MD5=[6395d185bf7278fa3f71a3a2a963a864]
reverse link IF_WS_CLIENT_PC_STREAMER_TELEMETRY to IF_WS_SERVER_RB_TELEMETRY--><path d="M284,337.21 C284,337.21 284,457 284,457 C284,457 1047.92,457 1059.86,457 " fill="none" id="IF_WS_CLIENT_PC_STREAMER_TELEMETRY&lt;-IF_WS_SERVER_RB_TELEMETRY" style="stroke: #A80036; stroke-width: 1.0;"/><polygon fill="#A80036" points="284,332.21,280,341.21,284,337.21,288,341.21,284,332.21" style="stroke: #A80036; stroke-width: 1.0;"/><!--MD5=[60e39c6b90c39195d84b28353411af35]
link IF_WS_CLIENT_PC_STREAMER_CTRL to IF_WS_SERVER_RB_CTRL--><path d="M592,332.15 C592,351.13 592,393 592,393 C592,393 1359.33,393 1359.33,393 C1359.33,393 1359.33,482.93 1359.33,482.93 " fill="none" id="IF_WS_CLIENT_PC_STREAMER_CTRL-&gt;IF_WS_SERVER_RB_CTRL" style="stroke: #A80036; stroke-width: 1.0;"/><polygon fill="#A80036" points="1359.33,487.93,1363.33,478.93,1359.33,482.93,1355.33,478.93,1359.33,487.93" style="stroke: #A80036; stroke-width: 1.0;"/><!--MD5=[5e65c40fdbae499f454ed64da5a22e36]
@startuml copper-components
skinparam linetype ortho

package "DualSense" {
	interface "Bluetooth" as IF_BT_DS
}

cloud "Wi-Fi" {
	package "Linux PC" {
		component "Controller" as PC_CTRL {
		    interface "Bluetooth" as IF_BT_PC_CTRL
            interface "WebSocket\nClient [/]" as IF_WS_CLIENT_PC_CTRL
        }
		component "Streamer" as PC_STREAMER {
            interface "WebSocket\nClient [/]" as IF_WS_CLIENT_PC_STREAMER_CTRL
            interface "WebSocket\nClient [/stream]" as IF_WS_CLIENT_PC_STREAMER_STREAM
            interface "WebSocket\nClient [/telemetry]" as IF_WS_CLIENT_PC_STREAMER_TELEMETRY
            interface "WebSocket\nServer [/]" as IF_WS_SERVER_PC_STREAMER
        }
		component "Web page" as PC_WEB

        IF_WS_SERVER_PC_STREAMER - -> PC_WEB
	}

	package "ESP32-S3" {
		component "Motor" as RB_MOTOR
		component "Telemetry" as RB_TELEMETRY
		component "Camera" as RB_CAMERA

        interface "WebSocket\nServer [/]" as IF_WS_SERVER_RB_CTRL
        interface "WebSocket\nServer [/stream]" as IF_WS_SERVER_RB_STREAM
        interface "WebSocket\nServer [/telemetry]" as IF_WS_SERVER_RB_TELEMETRY

        IF_WS_SERVER_RB_CTRL - -> RB_MOTOR
        IF_WS_SERVER_RB_TELEMETRY <- - RB_TELEMETRY
        IF_WS_SERVER_RB_STREAM <- - RB_CAMERA
	}
}

IF_BT_DS - -> IF_BT_PC_CTRL
IF_WS_CLIENT_PC_CTRL - -> IF_WS_SERVER_RB_CTRL
IF_WS_CLIENT_PC_STREAMER_STREAM <- - IF_WS_SERVER_RB_STREAM
IF_WS_CLIENT_PC_STREAMER_TELEMETRY <- - IF_WS_SERVER_RB_TELEMETRY
IF_WS_CLIENT_PC_STREAMER_CTRL - -> IF_WS_SERVER_RB_CTRL

@enduml

PlantUML version 1.2020.02(Sun Mar 01 10:22:07 UTC 2020)
(GPL source distribution)
Java Runtime: OpenJDK Runtime Environment
JVM: OpenJDK 64-Bit Server VM
Java Version: 17.0.18+8-Debian-1deb12u1
Operating System: Linux
Default Encoding: UTF-8
Language: en
Country: US
--></g></svg>