<?xml version="1.0" encoding="UTF-8" standalone="no"?><svg xmlns="http://www.w3.org/2000/svg" xmlns:xlink="http://www.w3.org/1999/xlink" contentScriptType="application/ecmascript" contentStyleType="text/css" height="791px" preserveAspectRatio="none" style="width:1514px;height:791px;" version="1.1" viewBox="0 0 1514 791" width="1514px" zoomAndPan="magnify"><defs><filter height="300%" id="feak93ma5zkcr" width="300%" x="-1" y="-1"><feGaussianBlur result="blurOut" stdDeviation="2.0"/><feColorMatrix in="blurOut" result="blurOut2" type="matrix" values="0 0 0 0 0 0 0 0 0 0 0 0 0 0 0 0 0 0 .4 0"/><feOffset dx="4.0" dy="4.0" in="blurOut2" result="blurOut3"/><feBlend in="SourceGraphic" in2="blurOut3" mode="normal"/></filter></defs><g><!--MD5=[bdf6121bd6610a6398ec7be88fbe1238]
cluster DualSense--><polygon fill="#FFFFFF" filter="url(#feak93ma5zkcr)" points="788,24,865,24,872,49.0679,900,49.0679,900,142,788,142,788,24" style="stroke: #000000; stroke-width: 1.5;"/><line style="stroke: #000000; stroke-width: 1.5;" x1="788" x2="872" y1="49.0679" y2="49.0679"/><text fill="#000000" font-family="sans-serif" font-size="14" font-weight="bold" lengthAdjust="spacingAndGlyphs" textLength="71" x="792" y="40.9659">DualSense</text><!--MD5=[a647931ab074a0ba2df1015ac25869ee]
cluster Wi-Fi--><path d="M38.5249,181.6219 C67.4917,135.9546 107.4751,124.115 140.7315,177.1814 C169.2075,129.8318 214.6874,127.4963 245.7724,174.2698 C275.6596,129.0059 320.7637,135.9215 346.8218,178.6663 C369.8146,139.2443 411.9526,132.4344 439.7377,173.1068 C474.1813,125.3482 511.3384,130.8108 542.1516,177.0617 C568.6301,121.5561 608.802,131.8571 640.3853,171.8084 C665.7104,126.7117 710.5347,123.752 737.1983,170.3959 C767.6834,125.438 807.9307,121.0806 835.0341,173.7836 C870.4337,122.3534 916.9575,129.3266 938.8259,186.6924 C964.511,146.4258 992.2229,141.9474 1026.0073,177.3624 C1056.789,127.1356 1106.848,133.0947 1130.7642,184.4429 C1163.6866,142.2734 1190.6509,139.9777 1218.8196,189.0314 C1238.4147,143.0831 1283.7039,127.4852 1316.4192,175.3871 C1346.4051,125.6266 1395.4476,130.4886 1420,181 C1427.7439,182.3974 1430.2304,188.8051 1425.7932,195.1793 C1480.2555,234.0368 1489.5339,277.7741 1425.5351,316.3794 C1480.0414,357.7727 1495.425,396.0728 1430.0491,441.7815 C1498.0189,480.8947 1502.5274,533.1593 1437.8695,579.788 C1498.3848,629.538 1474.7855,682.7893 1413,709 C1418.8882,705.4751 1423.5571,708.4416 1423.1013,715.2198 C1394.2305,766.3768 1363.8479,769.9592 1328.3594,721.5146 C1300.9356,770.8506 1252.9444,775.6218 1227.4719,719.6453 C1205.4739,760.8359 1160.211,768.0721 1134.1327,724.1183 C1098.3556,777.9688 1053.8415,779.0971 1021.3899,720.7758 C991.8874,760.4425 965.0452,760.1117 932.3312,724.5793 C895.5528,768.2536 855.2796,772.6955 828.544,714.3613 C794.6388,758.7605 763.0091,761.7399 729.6682,713.7572 C707.0034,759.6559 675.3395,765.0768 641.3233,725.4881 C610.0727,777.1295 567.887,776.7927 535.1486,727.0462 C497.5576,763.9098 462.0073,768.7633 438.6198,712.3479 C413.2189,758.6171 375.4067,762.1576 342.6912,720.3111 C317.7082,766.0166 269.3641,772.2675 242.7473,722.0127 C216.8267,769.5014 166.7575,770.762 142.2587,720.5503 C102.6452,771.1001 50.9144,764.6096 30,702 C31.8759,699.6193 33.7126,699.9187 35.1144,702.4897 C-17.1848,663.1163 -28.846,626.8381 28.9981,581.8792 C-37.7054,543.771 -35.6962,497.896 28.1835,458.9227 C-30.2352,411.1734 -40.4483,349.6992 41.2179,314.6018 C-34.0638,276.769 -34.1876,216.2267 37,174 C40.716,175.791 41.2207,178.5481 38.5249,181.6219 " fill="#FFFFFF" style="stroke: #000000; stroke-width: 1.5;"/><text fill="#000000" font-family="sans-serif" font-size="14" font-weight="bold" lengthAdjust="spacingAndGlyphs" textLength="35" x="707.5" y="193.9659">Wi-Fi</text><!--MD5=[e6959f4ef13c5092db05b3426e5f3994]
cluster Linux PC--><polygon fill="#FFFFFF" filter="url(#feak93ma5zkcr)" points="46,212,112,212,119,237.0679,924,237.0679,924,562.5,46,562.5,46,212" style="stroke: #000000; stroke-width: 1.5;"/><line style="stroke: #000000; stroke-width: 1.5;" x1="46" x2="119" y1="237.0679" y2="237.0679"/><text fill="#000000" font-family="sans-serif" font-size="14" font-weight="bold" lengthAdjust="spacingAndGlyphs" textLength="60" x="50" y="228.9659">Linux PC</text><!--MD5=[8c177ff27b1912b522ca976505259a84]
cluster PC_CTRL--><rect fill="#FFFFFF" filter="url(#feak93ma5zkcr)" height="156" style="stroke: #000000; stroke-width: 1.5;" width="235" x="665" y="258"/><rect fill="#FFFFFF" height="10" style="stroke: #000000; stroke-width: 1.5;" width="15" x="880" y="263"/><rect fill="#FFFFFF" height="2" style="stroke: #000000; stroke-width: 1.5;" width="4" x="878" y="265"/><rect fill="#FFFFFF" height="2" style="stroke: #000000; stroke-width: 1.5;" width="4" x="878" y="269"/><text fill="#000000" font-family="sans-serif" font-size="14" font-weight="bold" lengthAdjust="spacingAndGlyphs" textLength="70" x="747.5" y="285.9659">Controller</text><!--MD5=[d6e50becd95be6c155f56c5bccddaec5]
cluster PC_STREAMER--><rect fill="#FFFFFF" filter="url(#feak93ma5zkcr)" height="156" style="stroke: #000000; stroke-width: 1.5;" width="571" x="70" y="258"/><rect fill="#FFFFFF" height="10" style="stroke: #000000; stroke-width: 1.5;" width="15" x="621" y="263"/><rect fill="#FFFFFF" height="2" style="stroke: #000000; stroke-width: 1.5;" width="4" x="619" y="265"/><rect fill="#FFFFFF" height="2" style="stroke: #000000; stroke-width: 1.5;" width="4" x="619" y="269"/><text fill="#000000" font-family="sans-serif" font-size="14" font-weight="bold" lengthAdjust="spacingAndGlyphs" textLength="64" x="323.5" y="285.9659">Streamer</text><!--MD5=[b97f84ed6f5926d554d74eb198c9b251]
cluster ESP32-S3--><polygon fill="#FFFFFF" filter="url(#feak93ma5zkcr)" points="948,438,1016,438,1023,463.0679,1404,463.0679,1404,693,948,693,948,438" style="stroke: #000000; stroke-width: 1.5;"/><line style="stroke: #000000; stroke-width: 1.5;" x1="948" x2="1023" y1="463.0679" y2="463.0679"/><text fill="#000000" font-family="sans-serif" font-size="14" font-weight="bold" lengthAdjust="spacingAndGlyphs" textLength="62" x="952" y="454.9659">ESP32-S3</text><!--MD5=[35e703a6d1130e7d8043004459be5521]
entity IF_BT_DS--><ellipse cx="844" cy="94" fill="#FEFECE" filter="url(#feak93ma5zkcr)" rx="8" ry="8" style="stroke: #A80036; stroke-width: 2.0;"/><text fill="#000000" font-family="sans-serif" font-size="14" lengthAdjust="spacingAndGlyphs" textLength="65" x="811.5" y="125.9659">Bluetooth</text><!--MD5=[ae0b48ff5d6b3dedc5d65ce0a278aa28]
entity PC_WEB--><rect fill="#FEFECE" filter="url(#feak93ma5zkcr)" height="39.0679" style="stroke: #A80036; stroke-width: 1.5;" width="88" x="86" y="507.5"/><rect fill="#FEFECE" height="5" style="stroke: #A80036; stroke-width: 1.5;" width="10" x="81" y="512.5"/><rect fill="#FEFECE" height="5" style="stroke: #A80036; stroke-width: 1.5;" width="10" x="81" y="536.5679"/><text fill="#000000" font-family="sans-serif" font-size="14" lengthAdjust="spacingAndGlyphs" textLength="68" x="96" y="532.4659">Web page</text><!--MD5=[1b69c2be7bb9d61d5098d51463b81ada]
entity IF_BT_PC_CTRL--><ellipse cx="844" cy="347" fill="#FEFECE" filter="url(#feak93ma5zkcr)" rx="8" ry="8" style="stroke: #A80036; stroke-width: 2.0;"/><text fill="#000000" font-family="sans-serif" font-size="14" lengthAdjust="spacingAndGlyphs" textLength="65" x="811.5" y="378.9659">Bluetooth</text><!--MD5=[69a8e0f681643e96825f2a3bfe0797cb]
entity IF_WS_CLIENT_PC_CTRL--><ellipse cx="725" cy="347" fill="#FEFECE" filter="url(#feak93ma5zkcr)" rx="8" ry="8" style="stroke: #A80036; stroke-width: 2.0;"/><text fill="#000000" font-family="sans-serif" font-size="14" lengthAdjust="spacingAndGlyphs" textLength="73" x="688.5" y="378.9659">WebSocket</text><text fill="#000000" font-family="sans-serif" font-size="14" lengthAdjust="spacingAndGlyphs" textLength="58" x="688.5" y="398.0339">Client [/]</text><!--MD5=[8852251950aa4f4b8d3e0ed8aa284e7b]
entity IF_WS_CLIENT_PC_STREAMER_CTRL--><ellipse cx="581" cy="347" fill="#FEFECE" filter="url(#feak93ma5zkcr)" rx="8" ry="8" style="stroke: #A80036; stroke-width: 2.0;"/><text fill="#000000" font-family="sans-serif" font-size="14" lengthAdjust="spacingAndGlyphs" textLength="73" x="544.5" y="378.9659">WebSocket</text><text fill="#000000" font-family="sans-serif" font-size="14" lengthAdjust="spacingAndGlyphs" textLength="58" x="544.5" y="398.0339">Client [/]</text><!--MD5=[9502f94c31a4d1a055e0583ba11d855b]
entity IF_WS_CLIENT_PC_STREAMER_STREAM--><ellipse cx="442" cy="347" fill="#FEFECE" filter="url(#feak93ma5zkcr)" rx="8" ry="8" style="stroke: #A80036; stroke-width: 2.0;"/><text fill="#000000" font-family="sans-serif" font-size="14" lengthAdjust="spacingAndGlyphs" textLength="73" x="389.5" y="378.9659">WebSocket</text><text fill="#000000" font-family="sans-serif" font-size="14" lengthAdjust="spacingAndGlyphs" textLength="105" x="389.5" y="398.0339">Client [/stream]</text><!--MD5=[157b3313e172692954d90cbce56b4623]
entity IF_WS_CLIENT_PC_STREAMER_TELEMETRY--><ellipse cx="278" cy="347" fill="#FEFECE" filter="url(#feak93ma5zkcr)" rx="8" ry="8" style="stroke: #A80036; stroke-width: 2.0;"/><text fill="#000000" font-family="sans-serif" font-size="14" lengthAdjust="spacingAndGlyphs" textLength="73" x="217" y="378.9659">WebSocket</text><text fill="#000000" font-family="sans-serif" font-size="14" lengthAdjust="spacingAndGlyphs" textLength="122" x="217" y="398.0339">Client [/telemetry]</text><!--MD5=[17a7beb679be63d7e60fe876ed2dea2b]
entity IF_WS_SERVER_PC_STREAMER--><ellipse cx="130" cy="347" fill="#FEFECE" filter="url(#feak93ma5zkcr)" rx="8" ry="8" style="stroke: #A80036; stroke-width: 2.0;"/><text fill="#000000" font-family="sans-serif" font-size="14" lengthAdjust="spacingAndGlyphs" textLength="73" x="93.5" y="378.9659">WebSocket</text><text fill="#000000" font-family="sans-serif" font-size="14" lengthAdjust="spacingAndGlyphs" textLength="62" x="93.5" y="398.0339">Server [/]</text><!--MD5=[aefc414ba321c3836af0adf24fbc5676]
entity RB_MOTOR--><rect fill="#FEFECE" filter="url(#feak93ma5zkcr)" height="39.0679" style="stroke: #A80036; stroke-width: 1.5;" width="60" x="1314" y="638"/><rect fill="#FEFECE" height="5" style="stroke: #A80036; stroke-width: 1.5;" width="10" x="1309" y="643"/><rect fill="#FEFECE" height="5" style="stroke: #A80036; stroke-width: 1.5;" width="10" x="1309" y="667.0679"/><text fill="#000000" font-family="sans-serif" font-size="14" lengthAdjust="spacingAndGlyphs" textLength="40" x="1324" y="662.9659">Motor</text><!--MD5=[32efbcd5f3235b6d280157cdd2ffaba4]
entity RB_TELEMETRY--><rect fill="#FEFECE" filter="url(#feak93ma5zkcr)" height="39.0679" style="stroke: #A80036; stroke-width: 1.5;" width="87" x="991.5" y="638"/><rect fill="#FEFECE" height="5" style="stroke: #A80036; stroke-width: 1.5;" width="10" x="986.5" y="643"/><rect fill="#FEFECE" height="5" style="stroke: #A80036; stroke-width: 1.5;" width="10" x="986.5" y="667.0679"/><text fill="#000000" font-family="sans-serif" font-size="14" lengthAdjust="spacingAndGlyphs" textLength="67" x="1001.5" y="662.9659">Telemetry</text><!--MD5=[317b8ae5f9f4087ded4103025edc4158]
entity RB_CAMERA--><rect fill="#FEFECE" filter="url(#feak93ma5zkcr)" height="39.0679" style="stroke: #A80036; stroke-width: 1.5;" width="72" x="1167" y="638"/><rect fill="#FEFECE" height="5" style="stroke: #A80036; stroke-width: 1.5;" width="10" x="1162" y="643"/><rect fill="#FEFECE" height="5" style="stroke: #A80036; stroke-width: 1.5;" width="10" x="1162" y="667.0679"/><text fill="#000000" font-family="sans-serif" font-size="14" lengthAdjust="spacingAndGlyphs" textLength="52" x="1177" y="662.9659">Camera</text><!--MD5=[917c7865713bddfe9cb8678d7fd779d8]
entity IF_WS_SERVER_RB_CTRL--><ellipse cx="1344" cy="527" fill="#FEFECE" filter="url(#feak93ma5zkcr)" rx="8" ry="8" style="stroke: #A80036; stroke-width: 2.0;"/><text fill="#000000" font-family="sans-serif" font-size="14" lengthAdjust="spacingAndGlyphs" textLength="73" x="1307.5" y="558.9659">WebSocket</text><text fill="#000000" font-family="sans-serif" font-size="14" lengthAdjust="spacingAndGlyphs" textLength="62" x="1307.5" y="578.0339">Server [/]</text><!--MD5=[5642cd0eec574521f8db52f1452905d8]
entity IF_WS_SERVER_RB_STREAM--><ellipse cx="1203" cy="527" fill="#FEFECE" filter="url(#feak93ma5zkcr)" rx="8" ry="8" style="stroke: #A80036; stroke-width: 2.0;"/><text fill="#000000" font-family="sans-serif" font-size="14" lengthAdjust="spacingAndGlyphs" textLength="73" x="1148.5" y="558.9659">WebSocket</text><text fill="#000000" font-family="sans-serif" font-size="14" lengthAdjust="spacingAndGlyphs" textLength="109" x="1148.5" y="578.0339">Server [/stream]</text><!--MD5=[6611d635022dff69098c777f9991a079]
entity IF_WS_SERVER_RB_TELEMETRY--><ellipse cx="1035" cy="527" fill="#FEFECE" filter="url(#feak93ma5zkcr)" rx="8" ry="8" style="stroke: #A80036; stroke-width: 2.0;"/><text fill="#000000" font-family="sans-serif" font-size="14" lengthAdjust="spacingAndGlyphs" textLength="73" x="972" y="558.9659">WebSocket</text><text fill="#000000" font-family="sans-serif" font-size="14" lengthAdjust="spacingAndGlyphs" textLength="126" x="972" y="578.0339">Server [/telemetry]</text><!--MD5=[8ff06afa8c0d9194b660dd292dec3597]
link IF_WS_SERVER_PC_STREAMER to PC_WEB--><path d="M130,356.17 C130,356.17 130,502.28 130,502.28 " fill="none" id="IF_WS_SERVER_PC_STREAMER-&gt;PC_WEB" style="stroke: #A80036; stroke-width: 1.0;"/><polygon fill="#A80036" points="130,507.28,134,498.28,130,502.28,126,498.28,130,507.28" style="stroke: #A80036; stroke-width: 1.0;"/><!--MD5=[3fa074fb25ec91f6dda535422222bd9d]
link IF_WS_SERVER_RB_CTRL to RB_MOTOR--><path d="M1344,536.39 C1344,536.39 1344,632.85 1344,632.85 " fill="none" id="IF_WS_SERVER_RB_CTRL-&gt;RB_MOTOR" style="stroke: #A80036; stroke-width: 1.0;"/><polygon fill="#A80036" points="1344,637.85,1348,628.85,1344,632.85,1340,628.85,1344,637.85" style="stroke: #A80036; stroke-width: 1.0;"/><!--MD5=[766052f033cefbcc87509d7d01a0abfa]
reverse link IF_WS_SERVER_RB_TELEMETRY to RB_TELEMETRY--><path d="M1035,541.39 C1035,541.39 1035,637.85 1035,637.85 " fill="none" id="IF_WS_SERVER_RB_TELEMETRY&lt;-RB_TELEMETRY" style="stroke: #A80036; stroke-width: 1.0;"/><polygon fill="#A80036" points="1035,536.39,1031,545.39,1035,541.39,1039,545.39,1035,536.39" style="stroke: #A80036; stroke-width: 1.0;"/><!--MD5=[8224029f92d135f908e979d4246eaff4]
reverse link IF_WS_SERVER_RB_STREAM to RB_CAMERA--><path d="M1203,541.39 C1203,541.39 1203,637.85 1203,637.85 " fill="none" id="IF_WS_SERVER_RB_STREAM&lt;-RB_CAMERA" style="stroke: #A80036; stroke-width: 1.0;"/><polygon fill="#A80036" points="1203,536.39,1199,545.39,1203,541.39,1207,545.39,1203,536.39" style="stroke: #A80036; stroke-width: 1.0;"/><!--MD5=[381595354808746c73a554d4c808dd75]
link IF_BT_DS to IF_BT_PC_CTRL--><path d="M844,103 C844,103 844,332.84 844,332.84 " fill="none" id="IF_BT_DS-&gt;IF_BT_PC_CTRL" style="stroke: #A80036; stroke-width: 1.0;"/><polygon fill="#A80036" points="844,337.84,848,328.84,844,332.84,840,328.84,844,337.84" style="stroke: #A80036; stroke-width: 1.0;"/><!--MD5=[ea48a664d9734cdb693c81f7d9c32445]
link IF_WS_CLIENT_PC_CTRL to IF_WS_SERVER_RB_CTRL--><path d="M725.12,389 C734.86,389 1358.67,389 1358.67,389 C1358.67,389 1358.67,521.9 1358.67,521.9 " fill="none" id="IF_WS_CLIENT_PC_CTRL-&gt;IF_WS_SERVER_RB_CTRL" style="stroke: #A80036; stroke-width: 1.0;"/><polygon fill="#A80036" points="1358.67,526.9,1362.67,517.9,1358.67,521.9,1354.67,517.9,1358.67,526.9" style="stroke: #A80036; stroke-width: 1.0;"/><!--MD5=[c6f3ebbdd6b7009aba7e0bbd6625a04a]
reverse link IF_WS_CLIENT_PC_STREAMER_STREAM to IF_WS_SERVER_RB_STREAM--><path d="M442,361.14 C442,361.14 442,450 442,450 C442,450 1203,450 1203,450 C1203,450 1203,497.47 1203,517.86 " fill="none" id="IF_WS_CLIENT_PC_STREAMER_STREAM&lt;-IF_WS_SERVER_RB_STREAM" style="stroke: #A80036; stroke-width: 1.0;"/><polygon fill="#A80036" points="442,356.14,438,365.14,442,361.14,446,365.14,442,356.14" style="stroke: #A80036; stroke-width: 1.0;"/><!--MD5=[6395d185bf7278fa3f71a3a2a963a864]
reverse link IF_WS_CLIENT_PC_STREAMER_TELEMETRY to IF_WS_SERVER_RB_TELEMETRY--><path d="M278,361.07 C278,361.07 278,492 278,492 C278,492 1023.22,492 1034.86,492 " fill="none" id="IF_WS_CLIENT_PC_STREAMER_TELEMETRY&lt;-IF_WS_SERVER_RB_TELEMETRY" style="stroke: #A80036; stroke-width: 1.0;"/><polygon fill="#A80036" points="278,356.07,274,365.07,278,361.07,282,365.07,278,356.07" style="stroke: #A80036; stroke-width: 1.0;"/><!--MD5=[60e39c6b90c39195d84b28353411af35]
link IF_WS_CLIENT_PC_STREAMER_CTRL to IF_WS_SERVER_RB_CTRL--><path d="M581,356.14 C581,376.53 581,424 581,424 C581,424 1329.33,424 1329.33,424 C1329.33,424 1329.33,521.93 1329.33,521.93 " fill="none" id="IF_WS_CLIENT_PC_STREAMER_CTRL-&gt;IF_WS_SERVER_RB_CTRL" style="stroke: #A80036; stroke-width: 1.0;"/><polygon fill="#A80036" points="1329.33,526.93,1333.33,517.93,1329.33,521.93,1325.33,517.93,1329.33,526.93" style="stroke: #A80036; stroke-width: 1.0;"/><!--MD5=[30ef91c4010233c2b14556ab1496fdac]
@startuml copper-components
skinparam linetype ortho

package "DualSense" {
	interface "Bluetooth" as IF_BT_DS
}

cloud "Wi-Fi" {
	package "Linux PC" {
		component "Controller" as PC_CTRL {
		    interface "Bluetooth" as IF_BT_PC_CTRL
            interface "WebSocket\nClient [/]" as IF_WS_CLIENT_PC_CTRL
        }
		component "Streamer" as PC_STREAMER {
            interface "WebSocket\nClient [/]" as IF_WS_CLIENT_PC_STREAMER_CTRL
            interface "WebSocket\nClient [/stream]" as IF_WS_CLIENT_PC_STREAMER_STREAM
            interface "WebSocket\nClient [/telemetry]" as IF_WS_CLIENT_PC_STREAMER_TELEMETRY
            interface "WebSocket\nServer [/]" as IF_WS_SERVER_PC_STREAMER
        }
		component "Web page" as PC_WEB

        IF_WS_SERVER_PC_STREAMER - -> PC_WEB
	}

	package "ESP32-S3" {
		component "Motor" as RB_MOTOR
		component "Telemetry" as RB_TELEMETRY
		component "Camera" as RB_CAMERA

        interface "WebSocket\nServer [/]" as IF_WS_SERVER_RB_CTRL
        interface "WebSocket\nServer [/stream]" as IF_WS_SERVER_RB_STREAM
        interface "WebSocket\nServer [/telemetry]" as IF_WS_SERVER_RB_TELEMETRY

        IF_WS_SERVER_RB_CTRL - -> RB_MOTOR
        IF_WS_SERVER_RB_TELEMETRY <- - RB_TELEMETRY
        IF_WS_SERVER_RB_STREAM <- - RB_CAMERA
	}
}

IF_BT_DS - -> IF_BT_PC_CTRL
IF_WS_CLIENT_PC_CTRL - -> IF_WS_SERVER_RB_CTRL
IF_WS_CLIENT_PC_STREAMER_STREAM <- - IF_WS_SERVER_RB_STREAM
IF_WS_CLIENT_PC_STREAMER_TELEMETRY <- - IF_WS_SERVER_RB_TELEMETRY
IF_WS_CLIENT_PC_STREAMER_CTRL - -> IF_WS_SERVER_RB_CTRL

@enduml

PlantUML version 1.2020.02(Sun Mar 01 11:22:07 CET 2020)
(GPL source distribution)
Java Runtime: OpenJDK Runtime Environment
JVM: OpenJDK 64-Bit Server VM
Java Version: 21.0.10+7-Ubuntu-124.04
Operating System: Linux
Default Encoding: UTF-8
Language: en
Country: US
--></g></svg>