<?xml version="1.0" encoding="UTF-8" standalone="no"?><svg xmlns="http://www.w3.org/2000/svg" xmlns:xlink="http://www.w3.org/1999/xlink" contentScriptType="application/ecmascript" contentStyleType="text/css" height="627px" preserveAspectRatio="none" style="width:1202px;height:627px;" version="1.1" viewBox="0 0 1202 627" width="1202px" zoomAndPan="magnify"><defs><filter height="300%" id="f16dl0ksnsy395" width="300%" x="-1" y="-1"><feGaussianBlur result="blurOut" stdDeviation="2.0"/><feColorMatrix in="blurOut" result="blurOut2" type="matrix" values="0 0 0 0 0 0 0 0 0 0 0 0 0 0 0 0 0 0 .4 0"/><feOffset dx="4.0" dy="4.0" in="blurOut2" result="blurOut3"/><feBlend in="SourceGraphic" in2="blurOut3" mode="normal"/></filter></defs><g><!--MD5=[bdf6121bd6610a6398ec7be88fbe1238]
cluster DualSense--><polygon fill="#FFFFFF" filter="url(#f16dl0ksnsy395)" points="22,188.5,111,188.5,118,210.7969,142,210.7969,142,275.5,22,275.5,22,188.5" style="stroke: #000000; stroke-width: 1.5;"/><line style="stroke: #000000; stroke-width: 1.5;" x1="22" x2="118" y1="210.7969" y2="210.7969"/><text fill="#000000" font-family="sans-serif" font-size="14" font-weight="bold" lengthAdjust="spacingAndGlyphs" textLength="83" x="26" y="203.4951">DualSense</text><!--MD5=[a647931ab074a0ba2df1015ac25869ee]
cluster Wi-Fi--><path d="M190.9948,41.7631 C210.9092,10.2414 230.6277,5.6255 256.2732,35.6881 C275.9711,3.2299 304.3069,-6.3129 328.6996,30.8006 C352.4298,-3.61 377.7233,0.3557 395.3792,36.5382 C409.9708,4.4048 435.2786,1.3799 455.7798,30.733 C479.0315,-3.64 507.4802,-0.0591 530.1086,31.4364 C546.1044,-0.2071 571.6089,1.0139 589.3957,29.6756 C610.9588,0.3001 646.7038,-2.881 661.1024,37.0847 C680.5284,-4.4295 708.6996,-9.1983 736.6449,29.0123 C757.8928,8.594 781.469,8.9946 792.539,40.0617 C816.8555,8.7054 838.4869,9.5412 863.3067,39.4806 C884.5507,3.3557 913.5942,7.1126 933.1547,41.1564 C950.7198,13.7725 984.6131,8.4198 1001.173,42.2728 C1026.3267,3.2161 1048.8088,12.7947 1073.3954,42.8653 C1092.1979,6.4848 1116.4113,11.1171 1139,39 C1145.882,36.1725 1150.0176,38.5692 1149.5354,46.3285 C1175.907,70.3699 1182.0784,94.7698 1144.7808,114.3616 C1175.4622,129.4135 1185.6909,151.9152 1155.9653,177.6435 C1185.2338,198.4352 1187.1703,219.2802 1155.4884,239.6028 C1188.0365,264.3854 1190.0012,286.7562 1155.5856,311.6292 C1181.9514,330.5321 1180.5845,346.8896 1154.9008,365.1262 C1188.3432,386.5878 1189.8186,417.5268 1156.6989,440.5748 C1184.1988,467.7725 1178.0604,491.0722 1143.8587,506.1968 C1168.6958,530.9394 1162.0583,552.9639 1132,567 C1140.2382,565.6975 1143.3915,570.135 1140.637,577.7032 C1119.1386,613.9395 1086.5973,606.2003 1067.2817,575.3176 C1048.6298,609.1081 1029.714,605.46 1006.6789,579.7845 C985.2197,613.2028 951.1665,605.6384 936.5183,572.5945 C914.8909,603.1352 895.2584,603.3021 872.3684,573.9467 C849.6573,612.0978 815.6276,612.9512 795.9528,571.0484 C776.003,601.4446 750.0817,604.0998 728.8797,572.401 C708.5241,599.8006 676.3718,608.3442 658.6777,569.5772 C642.4287,598.3114 619.0564,605.9731 596.7391,575.977 C574.071,608.9034 542.7423,602.2343 525.317,570.2117 C509.4605,602.9548 477.784,603.6211 457.1014,575.6325 C438.5396,607.5742 405.3753,615.4689 385.0704,577.4265 C365.8904,605.1195 337.7139,606.5198 323.213,572.7197 C301.3712,604.5431 281.6578,607.2178 259.6078,572.92 C228.0473,607.5915 194.1851,600.7014 174,560 C180.9813,558.1025 184.3264,560.6177 184.2087,567.8971 C146.5005,550.6432 143.9857,518.006 180.0233,496.4329 C151.7572,477.5717 153.4604,458.8071 180.1195,440.0395 C141.2818,418.5371 146.2222,389.87 176.3957,364.9454 C148.8033,349.1837 143.8772,317.932 176.3193,302.0974 C143.1852,288.8771 137.9213,258.1457 168.0374,236.8919 C134.9994,211.9785 141.1348,187.3209 176.6951,171.488 C153.1156,152.6156 148.182,127.6778 181.2026,113.181 C147.8079,88.4049 140.7553,56.9599 181,32 C188.7308,30.8512 192.3302,33.6305 190.9948,41.7631 " fill="#FFFFFF" style="stroke: #000000; stroke-width: 1.5;"/><text fill="#000000" font-family="sans-serif" font-size="14" font-weight="bold" lengthAdjust="spacingAndGlyphs" textLength="38" x="637.5" y="49.9951">Wi-Fi</text><!--MD5=[e6959f4ef13c5092db05b3426e5f3994]
cluster Linux PC--><polygon fill="#FFFFFF" filter="url(#f16dl0ksnsy395)" points="190,308,264,308,271,330.2969,1123,330.2969,1123,551,190,551,190,308" style="stroke: #000000; stroke-width: 1.5;"/><line style="stroke: #000000; stroke-width: 1.5;" x1="190" x2="271" y1="330.2969" y2="330.2969"/><text fill="#000000" font-family="sans-serif" font-size="14" font-weight="bold" lengthAdjust="spacingAndGlyphs" textLength="68" x="194" y="322.9951">Linux PC</text><!--MD5=[7f3a7e2575de88d42ea94dea7c896c71]
cluster PC_CONTROLLER--><rect fill="#FFFFFF" filter="url(#f16dl0ksnsy395)" height="104" style="stroke: #000000; stroke-width: 1.5;" width="255" x="214" y="351"/><rect fill="#FFFFFF" height="10" style="stroke: #000000; stroke-width: 1.5;" width="15" x="449" y="356"/><rect fill="#FFFFFF" height="2" style="stroke: #000000; stroke-width: 1.5;" width="4" x="447" y="358"/><rect fill="#FFFFFF" height="2" style="stroke: #000000; stroke-width: 1.5;" width="4" x="447" y="362"/><text fill="#000000" font-family="sans-serif" font-size="14" font-weight="bold" lengthAdjust="spacingAndGlyphs" textLength="79" x="302" y="376.9951">Controller</text><!--MD5=[d6e50becd95be6c155f56c5bccddaec5]
cluster PC_STREAMER--><rect fill="#FFFFFF" filter="url(#f16dl0ksnsy395)" height="104" style="stroke: #000000; stroke-width: 1.5;" width="606" x="493" y="351"/><rect fill="#FFFFFF" height="10" style="stroke: #000000; stroke-width: 1.5;" width="15" x="1079" y="356"/><rect fill="#FFFFFF" height="2" style="stroke: #000000; stroke-width: 1.5;" width="4" x="1077" y="358"/><rect fill="#FFFFFF" height="2" style="stroke: #000000; stroke-width: 1.5;" width="4" x="1077" y="362"/><text fill="#000000" font-family="sans-serif" font-size="14" font-weight="bold" lengthAdjust="spacingAndGlyphs" textLength="73" x="759.5" y="376.9951">Streamer</text><!--MD5=[b97f84ed6f5926d554d74eb198c9b251]
cluster ESP32-S3--><polygon fill="#FFFFFF" filter="url(#f16dl0ksnsy395)" points="577,67,658,67,665,89.2969,1019,89.2969,1019,284,577,284,577,67" style="stroke: #000000; stroke-width: 1.5;"/><line style="stroke: #000000; stroke-width: 1.5;" x1="577" x2="665" y1="89.2969" y2="89.2969"/><text fill="#000000" font-family="sans-serif" font-size="14" font-weight="bold" lengthAdjust="spacingAndGlyphs" textLength="75" x="581" y="81.9951">ESP32-S3</text><!--MD5=[70e1d3a469482106c371e581eee84070]
entity DS_BT--><rect fill="#FEFECE" filter="url(#f16dl0ksnsy395)" height="36.2969" style="stroke: #A80036; stroke-width: 1.5;" width="88" x="38" y="223.5"/><rect fill="#FEFECE" height="5" style="stroke: #A80036; stroke-width: 1.5;" width="10" x="33" y="228.5"/><rect fill="#FEFECE" height="5" style="stroke: #A80036; stroke-width: 1.5;" width="10" x="33" y="249.7969"/><text fill="#000000" font-family="sans-serif" font-size="14" lengthAdjust="spacingAndGlyphs" textLength="68" x="48" y="246.4951">Bluetooth</text><!--MD5=[ae0b48ff5d6b3dedc5d65ce0a278aa28]
entity PC_WEB--><rect fill="#FEFECE" filter="url(#f16dl0ksnsy395)" height="36.2969" style="stroke: #A80036; stroke-width: 1.5;" width="90" x="514" y="499"/><rect fill="#FEFECE" height="5" style="stroke: #A80036; stroke-width: 1.5;" width="10" x="509" y="504"/><rect fill="#FEFECE" height="5" style="stroke: #A80036; stroke-width: 1.5;" width="10" x="509" y="525.2969"/><text fill="#000000" font-family="sans-serif" font-size="14" lengthAdjust="spacingAndGlyphs" textLength="70" x="524" y="521.9951">Web page</text><!--MD5=[0252d38efc1e8f8f2b636406a645ee76]
entity PC_BT--><rect fill="#FEFECE" filter="url(#f16dl0ksnsy395)" height="36.2969" style="stroke: #A80036; stroke-width: 1.5;" width="88" x="230" y="394.5"/><rect fill="#FEFECE" height="5" style="stroke: #A80036; stroke-width: 1.5;" width="10" x="225" y="399.5"/><rect fill="#FEFECE" height="5" style="stroke: #A80036; stroke-width: 1.5;" width="10" x="225" y="420.7969"/><text fill="#000000" font-family="sans-serif" font-size="14" lengthAdjust="spacingAndGlyphs" textLength="68" x="240" y="417.4951">Bluetooth</text><!--MD5=[5dddc9dace17808d1e63f3ac9dd33a5a]
entity PC_CONTROLLER_WS_CLIENT_CONTROL--><rect fill="#FEFECE" filter="url(#f16dl0ksnsy395)" height="52.5938" style="stroke: #A80036; stroke-width: 1.5;" width="99" x="353.5" y="386"/><rect fill="#FEFECE" height="5" style="stroke: #A80036; stroke-width: 1.5;" width="10" x="348.5" y="391"/><rect fill="#FEFECE" height="5" style="stroke: #A80036; stroke-width: 1.5;" width="10" x="348.5" y="428.5938"/><text fill="#000000" font-family="sans-serif" font-size="14" lengthAdjust="spacingAndGlyphs" textLength="79" x="363.5" y="408.9951">WebSocket</text><text fill="#000000" font-family="sans-serif" font-size="14" lengthAdjust="spacingAndGlyphs" textLength="58" x="363.5" y="425.292">Client [/]</text><!--MD5=[ac2fb136f651a01f8c8a08feabd9803e]
entity PC_STREAMER_WS_CLIENT_CONTROL--><rect fill="#FEFECE" filter="url(#f16dl0ksnsy395)" height="52.5938" style="stroke: #A80036; stroke-width: 1.5;" width="99" x="983.5" y="386"/><rect fill="#FEFECE" height="5" style="stroke: #A80036; stroke-width: 1.5;" width="10" x="978.5" y="391"/><rect fill="#FEFECE" height="5" style="stroke: #A80036; stroke-width: 1.5;" width="10" x="978.5" y="428.5938"/><text fill="#000000" font-family="sans-serif" font-size="14" lengthAdjust="spacingAndGlyphs" textLength="79" x="993.5" y="408.9951">WebSocket</text><text fill="#000000" font-family="sans-serif" font-size="14" lengthAdjust="spacingAndGlyphs" textLength="58" x="993.5" y="425.292">Client [/]</text><!--MD5=[e901261b9e3a0ae896d27c29cf563961]
entity PC_STREAMER_WS_CLIENT_STREAM--><rect fill="#FEFECE" filter="url(#f16dl0ksnsy395)" height="52.5938" style="stroke: #A80036; stroke-width: 1.5;" width="126" x="822" y="386"/><rect fill="#FEFECE" height="5" style="stroke: #A80036; stroke-width: 1.5;" width="10" x="817" y="391"/><rect fill="#FEFECE" height="5" style="stroke: #A80036; stroke-width: 1.5;" width="10" x="817" y="428.5938"/><text fill="#000000" font-family="sans-serif" font-size="14" lengthAdjust="spacingAndGlyphs" textLength="79" x="832" y="408.9951">WebSocket</text><text fill="#000000" font-family="sans-serif" font-size="14" lengthAdjust="spacingAndGlyphs" textLength="106" x="832" y="425.292">Client [/stream]</text><!--MD5=[a1f7758f69e497b8b22315109bcecea5]
entity PC_STREAMER_WS_CLIENT_TELEMETRY--><rect fill="#FEFECE" filter="url(#f16dl0ksnsy395)" height="52.5938" style="stroke: #A80036; stroke-width: 1.5;" width="143" x="643.5" y="386"/><rect fill="#FEFECE" height="5" style="stroke: #A80036; stroke-width: 1.5;" width="10" x="638.5" y="391"/><rect fill="#FEFECE" height="5" style="stroke: #A80036; stroke-width: 1.5;" width="10" x="638.5" y="428.5938"/><text fill="#000000" font-family="sans-serif" font-size="14" lengthAdjust="spacingAndGlyphs" textLength="79" x="653.5" y="408.9951">WebSocket</text><text fill="#000000" font-family="sans-serif" font-size="14" lengthAdjust="spacingAndGlyphs" textLength="123" x="653.5" y="425.292">Client [/telemetry]</text><!--MD5=[696d348e4c2cec0cdd9081bf06d5f9ca]
entity PC_STREAMER_WS_SERVER_WEB--><rect fill="#FEFECE" filter="url(#f16dl0ksnsy395)" height="52.5938" style="stroke: #A80036; stroke-width: 1.5;" width="99" x="509.5" y="386"/><rect fill="#FEFECE" height="5" style="stroke: #A80036; stroke-width: 1.5;" width="10" x="504.5" y="391"/><rect fill="#FEFECE" height="5" style="stroke: #A80036; stroke-width: 1.5;" width="10" x="504.5" y="428.5938"/><text fill="#000000" font-family="sans-serif" font-size="14" lengthAdjust="spacingAndGlyphs" textLength="79" x="519.5" y="408.9951">WebSocket</text><text fill="#000000" font-family="sans-serif" font-size="14" lengthAdjust="spacingAndGlyphs" textLength="63" x="519.5" y="425.292">Server [/]</text><!--MD5=[3f0843864e7be56816863728e9fea63f]
entity ESP_MOTOR--><rect fill="#FEFECE" filter="url(#f16dl0ksnsy395)" height="36.2969" style="stroke: #A80036; stroke-width: 1.5;" width="60" x="943" y="223.5"/><rect fill="#FEFECE" height="5" style="stroke: #A80036; stroke-width: 1.5;" width="10" x="938" y="228.5"/><rect fill="#FEFECE" height="5" style="stroke: #A80036; stroke-width: 1.5;" width="10" x="938" y="249.7969"/><text fill="#000000" font-family="sans-serif" font-size="14" lengthAdjust="spacingAndGlyphs" textLength="40" x="953" y="246.4951">Motor</text><!--MD5=[936a4d00798a9ae90b69fdea962329ea]
entity ESP_TELEMETRY--><rect fill="#FEFECE" filter="url(#f16dl0ksnsy395)" height="36.2969" style="stroke: #A80036; stroke-width: 1.5;" width="89" x="622.5" y="110.5"/><rect fill="#FEFECE" height="5" style="stroke: #A80036; stroke-width: 1.5;" width="10" x="617.5" y="115.5"/><rect fill="#FEFECE" height="5" style="stroke: #A80036; stroke-width: 1.5;" width="10" x="617.5" y="136.7969"/><text fill="#000000" font-family="sans-serif" font-size="14" lengthAdjust="spacingAndGlyphs" textLength="69" x="632.5" y="133.4951">Telemetry</text><!--MD5=[c01ac051b1d16ac646eca15ad26d784d]
entity ESP_CAMERA--><rect fill="#FEFECE" filter="url(#f16dl0ksnsy395)" height="36.2969" style="stroke: #A80036; stroke-width: 1.5;" width="73" x="795.5" y="110.5"/><rect fill="#FEFECE" height="5" style="stroke: #A80036; stroke-width: 1.5;" width="10" x="790.5" y="115.5"/><rect fill="#FEFECE" height="5" style="stroke: #A80036; stroke-width: 1.5;" width="10" x="790.5" y="136.7969"/><text fill="#000000" font-family="sans-serif" font-size="14" lengthAdjust="spacingAndGlyphs" textLength="53" x="805.5" y="133.4951">Camera</text><!--MD5=[94c8c72e4a0e39253058ae19ff3859ba]
entity ESP_WS_SERVER_CONTROL--><rect fill="#FEFECE" filter="url(#f16dl0ksnsy395)" height="52.5938" style="stroke: #A80036; stroke-width: 1.5;" width="99" x="903.5" y="102"/><rect fill="#FEFECE" height="5" style="stroke: #A80036; stroke-width: 1.5;" width="10" x="898.5" y="107"/><rect fill="#FEFECE" height="5" style="stroke: #A80036; stroke-width: 1.5;" width="10" x="898.5" y="144.5938"/><text fill="#000000" font-family="sans-serif" font-size="14" lengthAdjust="spacingAndGlyphs" textLength="79" x="913.5" y="124.9951">WebSocket</text><text fill="#000000" font-family="sans-serif" font-size="14" lengthAdjust="spacingAndGlyphs" textLength="63" x="913.5" y="141.292">Server [/]</text><!--MD5=[68cd6d8e3153a4defb7e4b234eff0e5c]
entity ESP_WS_SERVER_STREAM--><rect fill="#FEFECE" filter="url(#f16dl0ksnsy395)" height="52.5938" style="stroke: #A80036; stroke-width: 1.5;" width="131" x="776.5" y="215"/><rect fill="#FEFECE" height="5" style="stroke: #A80036; stroke-width: 1.5;" width="10" x="771.5" y="220"/><rect fill="#FEFECE" height="5" style="stroke: #A80036; stroke-width: 1.5;" width="10" x="771.5" y="257.5938"/><text fill="#000000" font-family="sans-serif" font-size="14" lengthAdjust="spacingAndGlyphs" textLength="79" x="786.5" y="237.9951">WebSocket</text><text fill="#000000" font-family="sans-serif" font-size="14" lengthAdjust="spacingAndGlyphs" textLength="111" x="786.5" y="254.292">Server [/stream]</text><!--MD5=[ff8bdd6df63525f5a1f8ec220020bc48]
entity ESP_WS_SERVER_TELEMETRY--><rect fill="#FEFECE" filter="url(#f16dl0ksnsy395)" height="52.5938" style="stroke: #A80036; stroke-width: 1.5;" width="148" x="593" y="215"/><rect fill="#FEFECE" height="5" style="stroke: #A80036; stroke-width: 1.5;" width="10" x="588" y="220"/><rect fill="#FEFECE" height="5" style="stroke: #A80036; stroke-width: 1.5;" width="10" x="588" y="257.5938"/><text fill="#000000" font-family="sans-serif" font-size="14" lengthAdjust="spacingAndGlyphs" textLength="79" x="603" y="237.9951">WebSocket</text><text fill="#000000" font-family="sans-serif" font-size="14" lengthAdjust="spacingAndGlyphs" textLength="128" x="603" y="254.292">Server [/telemetry]</text><!--MD5=[48a4bdaab4f0aeca3482b1f0ac360ea5]
link DS_BT to PC_BT--><path d="M82,259.53 C82,303.56 82,413 82,413 C82,413 224.95,413 224.95,413 " fill="none" id="DS_BT-&gt;PC_BT" style="stroke: #A80036; stroke-width: 1.0;"/><polygon fill="#A80036" points="229.95,413,220.95,409,224.95,413,220.95,417,229.95,413" style="stroke: #A80036; stroke-width: 1.0;"/><!--MD5=[1577095a73caaa58a6d9ec49747871e9]
link PC_STREAMER_WS_SERVER_WEB to PC_WEB--><path d="M559,439.14 C559,439.14 559,493.96 559,493.96 " fill="none" id="PC_STREAMER_WS_SERVER_WEB-&gt;PC_WEB" style="stroke: #A80036; stroke-width: 1.0;"/><polygon fill="#A80036" points="559,498.96,563,489.96,559,493.96,555,489.96,559,498.96" style="stroke: #A80036; stroke-width: 1.0;"/><!--MD5=[52ff82f820b96bea3b9e77d46e8665f7]
link PC_CONTROLLER_WS_CLIENT_CONTROL to ESP_WS_SERVER_CONTROL--><path d="M403,385.99 C403,319.51 403,151 403,151 C403,151 898.22,151 898.22,151 " fill="none" id="PC_CONTROLLER_WS_CLIENT_CONTROL-&gt;ESP_WS_SERVER_CONTROL" style="stroke: #A80036; stroke-width: 1.0;"/><polygon fill="#A80036" points="903.22,151,894.22,147,898.22,151,894.22,155,903.22,151" style="stroke: #A80036; stroke-width: 1.0;"/><!--MD5=[bdff9f7cd89683220a33199143660433]
link ESP_WS_SERVER_STREAM to PC_STREAMER_WS_CLIENT_STREAM--><path d="M864.75,268.22 C864.75,268.22 864.75,380.97 864.75,380.97 " fill="none" id="ESP_WS_SERVER_STREAM-&gt;PC_STREAMER_WS_CLIENT_STREAM" style="stroke: #A80036; stroke-width: 1.0;"/><polygon fill="#A80036" points="864.75,385.97,868.75,376.97,864.75,380.97,860.75,376.97,864.75,385.97" style="stroke: #A80036; stroke-width: 1.0;"/><!--MD5=[a2d8bfa8ca5c2e5c0e6f055811530630]
link ESP_WS_SERVER_TELEMETRY to PC_STREAMER_WS_CLIENT_TELEMETRY--><path d="M692.25,268.22 C692.25,268.22 692.25,380.97 692.25,380.97 " fill="none" id="ESP_WS_SERVER_TELEMETRY-&gt;PC_STREAMER_WS_CLIENT_TELEMETRY" style="stroke: #A80036; stroke-width: 1.0;"/><polygon fill="#A80036" points="692.25,385.97,696.25,376.97,692.25,380.97,688.25,376.97,692.25,385.97" style="stroke: #A80036; stroke-width: 1.0;"/><!--MD5=[6aebee5fb806a6e83f375ef00f02a901]
link PC_STREAMER_WS_CLIENT_CONTROL to ESP_WS_SERVER_CONTROL--><path d="M1042.75,385.83 C1042.75,315.26 1042.75,129 1042.75,129 C1042.75,129 1007.6,129 1007.6,129 " fill="none" id="PC_STREAMER_WS_CLIENT_CONTROL-&gt;ESP_WS_SERVER_CONTROL" style="stroke: #A80036; stroke-width: 1.0;"/><polygon fill="#A80036" points="1002.6,129,1011.6,133,1007.6,129,1011.6,125,1002.6,129" style="stroke: #A80036; stroke-width: 1.0;"/><!--MD5=[1e5fa7afafd431d0c79a384822c5ba36]
link ESP_WS_SERVER_CONTROL to ESP_MOTOR--><path d="M972.75,155.28 C972.75,155.28 972.75,218.37 972.75,218.37 " fill="none" id="ESP_WS_SERVER_CONTROL-&gt;ESP_MOTOR" style="stroke: #A80036; stroke-width: 1.0;"/><polygon fill="#A80036" points="972.75,223.37,976.75,214.37,972.75,218.37,968.75,214.37,972.75,223.37" style="stroke: #A80036; stroke-width: 1.0;"/><!--MD5=[ce5853d2f2feec2a2e3297468c12738d]
link ESP_TELEMETRY to ESP_WS_SERVER_TELEMETRY--><path d="M667,146.66 C667,146.66 667,209.96 667,209.96 " fill="none" id="ESP_TELEMETRY-&gt;ESP_WS_SERVER_TELEMETRY" style="stroke: #A80036; stroke-width: 1.0;"/><polygon fill="#A80036" points="667,214.96,671,205.96,667,209.96,663,205.96,667,214.96" style="stroke: #A80036; stroke-width: 1.0;"/><!--MD5=[5f5a5cf1853e2472dbe842a5e7392b85]
link ESP_CAMERA to ESP_WS_SERVER_STREAM--><path d="M832,146.66 C832,146.66 832,209.96 832,209.96 " fill="none" id="ESP_CAMERA-&gt;ESP_WS_SERVER_STREAM" style="stroke: #A80036; stroke-width: 1.0;"/><polygon fill="#A80036" points="832,214.96,836,205.96,832,209.96,828,205.96,832,214.96" style="stroke: #A80036; stroke-width: 1.0;"/><!--MD5=[1d8d0cfea6e47e3e9ef735c07ae635c9]
@startuml copper-components
skinparam linetype ortho

package "DualSense" {
	component "Bluetooth" as DS_BT
}

cloud "Wi-Fi" {
	package "Linux PC" {
		component "Controller" as PC_CONTROLLER {
		    component "Bluetooth" as PC_BT
            component "WebSocket\nClient [/]" as PC_CONTROLLER_WS_CLIENT_CONTROL
        }
		component "Streamer" as PC_STREAMER {
            component "WebSocket\nClient [/]" as PC_STREAMER_WS_CLIENT_CONTROL
            component "WebSocket\nClient [/stream]" as PC_STREAMER_WS_CLIENT_STREAM
            component "WebSocket\nClient [/telemetry]" as PC_STREAMER_WS_CLIENT_TELEMETRY
            component "WebSocket\nServer [/]" as PC_STREAMER_WS_SERVER_WEB
        }
		component "Web page" as PC_WEB
	}

	package "ESP32-S3" {
		component "Motor" as ESP_MOTOR
		component "Telemetry" as ESP_TELEMETRY
		component "Camera" as ESP_CAMERA

        component "WebSocket\nServer [/]" as ESP_WS_SERVER_CONTROL
        component "WebSocket\nServer [/stream]" as ESP_WS_SERVER_STREAM
        component "WebSocket\nServer [/telemetry]" as ESP_WS_SERVER_TELEMETRY
	}
}

DS_BT - -> PC_BT

PC_STREAMER_WS_SERVER_WEB - -> PC_WEB

PC_CONTROLLER_WS_CLIENT_CONTROL - -> ESP_WS_SERVER_CONTROL
ESP_WS_SERVER_STREAM - -> PC_STREAMER_WS_CLIENT_STREAM
ESP_WS_SERVER_TELEMETRY - -> PC_STREAMER_WS_CLIENT_TELEMETRY
PC_STREAMER_WS_CLIENT_CONTROL - -> ESP_WS_SERVER_CONTROL

ESP_WS_SERVER_CONTROL - -> ESP_MOTOR
ESP_TELEMETRY - -> ESP_WS_SERVER_TELEMETRY
ESP_CAMERA - -> ESP_WS_SERVER_STREAM

@enduml

PlantUML version 1.2020.02(Sun Mar 01 10:22:07 UTC 2020)
(GPL source distribution)
Java Runtime: OpenJDK Runtime Environment
JVM: OpenJDK 64-Bit Server VM
Java Version: 17.0.18+8-Debian-1deb12u1
Operating System: Linux
Default Encoding: UTF-8
Language: en
Country: US
--></g></svg>