<?xml version="1.0" encoding="UTF-8" standalone="no"?><svg xmlns="http://www.w3.org/2000/svg" xmlns:xlink="http://www.w3.org/1999/xlink" contentScriptType="application/ecmascript" contentStyleType="text/css" height="648px" preserveAspectRatio="none" style="width:730px;height:648px;" version="1.1" viewBox="0 0 730 648" width="730px" zoomAndPan="magnify"><defs><filter height="300%" id="fxofxc9ztlgpa" width="300%" x="-1" y="-1"><feGaussianBlur result="blurOut" stdDeviation="2.0"/><feColorMatrix in="blurOut" result="blurOut2" type="matrix" values="0 0 0 0 0 0 0 0 0 0 0 0 0 0 0 0 0 0 .4 0"/><feOffset dx="4.0" dy="4.0" in="blurOut2" result="blurOut3"/><feBlend in="SourceGraphic" in2="blurOut3" mode="normal"/></filter></defs><g><!--MD5=[bdf6121bd6610a6398ec7be88fbe1238]
cluster DualSense--><polygon fill="#FFFFFF" filter="url(#fxofxc9ztlgpa)" points="46,24,135,24,142,46.2969,166,46.2969,166,111,46,111,46,24" style="stroke: #000000; stroke-width: 1.5;"/><line style="stroke: #000000; stroke-width: 1.5;" x1="46" x2="142" y1="46.2969" y2="46.2969"/><text fill="#000000" font-family="sans-serif" font-size="14" font-weight="bold" lengthAdjust="spacingAndGlyphs" textLength="83" x="50" y="38.9951">DualSense</text><!--MD5=[7d1e7526f8d2b642da3a269188e7dff7]
cluster Raspberry Pi 2--><polygon fill="#FFFFFF" filter="url(#fxofxc9ztlgpa)" points="22,135,143,135,150,157.2969,450,157.2969,450,514.5,22,514.5,22,135" style="stroke: #000000; stroke-width: 1.5;"/><line style="stroke: #000000; stroke-width: 1.5;" x1="22" x2="150" y1="157.2969" y2="157.2969"/><text fill="#000000" font-family="sans-serif" font-size="14" font-weight="bold" lengthAdjust="spacingAndGlyphs" textLength="115" x="26" y="149.9951">Raspberry Pi 2</text><!--MD5=[76b11a0e3cc027b4f335970ebd4ddc02]
cluster RPI_STREAMER--><rect fill="#FFFFFF" filter="url(#fxofxc9ztlgpa)" height="217" style="stroke: #000000; stroke-width: 1.5;" width="236" x="190" y="178"/><rect fill="#FFFFFF" height="10" style="stroke: #000000; stroke-width: 1.5;" width="15" x="406" y="183"/><rect fill="#FFFFFF" height="2" style="stroke: #000000; stroke-width: 1.5;" width="4" x="404" y="185"/><rect fill="#FFFFFF" height="2" style="stroke: #000000; stroke-width: 1.5;" width="4" x="404" y="189"/><text fill="#000000" font-family="sans-serif" font-size="14" font-weight="bold" lengthAdjust="spacingAndGlyphs" textLength="73" x="271.5" y="203.9951">Streamer</text><!--MD5=[9715bc2972ca191cc214e62bfc45855a]
cluster RPI_CONTROLLER--><rect fill="#FFFFFF" filter="url(#fxofxc9ztlgpa)" height="208.5" style="stroke: #000000; stroke-width: 1.5;" width="120" x="46" y="186.5"/><rect fill="#FFFFFF" height="10" style="stroke: #000000; stroke-width: 1.5;" width="15" x="146" y="191.5"/><rect fill="#FFFFFF" height="2" style="stroke: #000000; stroke-width: 1.5;" width="4" x="144" y="193.5"/><rect fill="#FFFFFF" height="2" style="stroke: #000000; stroke-width: 1.5;" width="4" x="144" y="197.5"/><text fill="#000000" font-family="sans-serif" font-size="14" font-weight="bold" lengthAdjust="spacingAndGlyphs" textLength="79" x="66.5" y="212.4951">Controller</text><!--MD5=[b97f84ed6f5926d554d74eb198c9b251]
cluster ESP32-S3--><polygon fill="#FFFFFF" filter="url(#fxofxc9ztlgpa)" points="474,419,555,419,562,441.2969,708,441.2969,708,636,474,636,474,419" style="stroke: #000000; stroke-width: 1.5;"/><line style="stroke: #000000; stroke-width: 1.5;" x1="474" x2="562" y1="441.2969" y2="441.2969"/><text fill="#000000" font-family="sans-serif" font-size="14" font-weight="bold" lengthAdjust="spacingAndGlyphs" textLength="75" x="478" y="433.9951">ESP32-S3</text><!--MD5=[70e1d3a469482106c371e581eee84070]
entity DS_BT--><rect fill="#FEFECE" filter="url(#fxofxc9ztlgpa)" height="36.2969" style="stroke: #A80036; stroke-width: 1.5;" width="88" x="62" y="59"/><rect fill="#FEFECE" height="5" style="stroke: #A80036; stroke-width: 1.5;" width="10" x="57" y="64"/><rect fill="#FEFECE" height="5" style="stroke: #A80036; stroke-width: 1.5;" width="10" x="57" y="85.2969"/><text fill="#000000" font-family="sans-serif" font-size="14" lengthAdjust="spacingAndGlyphs" textLength="68" x="72" y="81.9951">Bluetooth</text><!--MD5=[99d7a97a38cde86f2941718ff65da553]
entity RPI_WEB--><rect fill="#FEFECE" filter="url(#fxofxc9ztlgpa)" height="36.2969" style="stroke: #A80036; stroke-width: 1.5;" width="90" x="263" y="462.5"/><rect fill="#FEFECE" height="5" style="stroke: #A80036; stroke-width: 1.5;" width="10" x="258" y="467.5"/><rect fill="#FEFECE" height="5" style="stroke: #A80036; stroke-width: 1.5;" width="10" x="258" y="488.7969"/><text fill="#000000" font-family="sans-serif" font-size="14" lengthAdjust="spacingAndGlyphs" textLength="70" x="273" y="485.4951">Web page</text><!--MD5=[cade8b870621353b7c43cf9ce1a83e09]
entity RPI_STREAMER_WS_SERVER--><rect fill="#FEFECE" filter="url(#fxofxc9ztlgpa)" height="52.5938" style="stroke: #A80036; stroke-width: 1.5;" width="99" x="258.5" y="326"/><rect fill="#FEFECE" height="5" style="stroke: #A80036; stroke-width: 1.5;" width="10" x="253.5" y="331"/><rect fill="#FEFECE" height="5" style="stroke: #A80036; stroke-width: 1.5;" width="10" x="253.5" y="368.5938"/><text fill="#000000" font-family="sans-serif" font-size="14" lengthAdjust="spacingAndGlyphs" textLength="79" x="268.5" y="348.9951">WebSocket</text><text fill="#000000" font-family="sans-serif" font-size="14" lengthAdjust="spacingAndGlyphs" textLength="63" x="268.5" y="365.292">Server [/]</text><!--MD5=[c24e60f7048411cd86bda34bb8a598fb]
entity RPI_STREAMER_SERIAL--><rect fill="#FEFECE" filter="url(#fxofxc9ztlgpa)" height="52.5938" style="stroke: #A80036; stroke-width: 1.5;" width="95" x="314.5" y="213"/><rect fill="#FEFECE" height="5" style="stroke: #A80036; stroke-width: 1.5;" width="10" x="309.5" y="218"/><rect fill="#FEFECE" height="5" style="stroke: #A80036; stroke-width: 1.5;" width="10" x="309.5" y="255.5938"/><text fill="#000000" font-family="sans-serif" font-size="14" lengthAdjust="spacingAndGlyphs" textLength="37" x="324.5" y="235.9951">Serial</text><text fill="#000000" font-family="sans-serif" font-size="14" lengthAdjust="spacingAndGlyphs" textLength="75" x="324.5" y="252.292">[telemetry]</text><!--MD5=[c469acc06fc1e7fd71fc8e5712785a5d]
entity RPI_CAMERA--><rect fill="#FEFECE" filter="url(#fxofxc9ztlgpa)" height="36.2969" style="stroke: #A80036; stroke-width: 1.5;" width="73" x="206.5" y="221.5"/><rect fill="#FEFECE" height="5" style="stroke: #A80036; stroke-width: 1.5;" width="10" x="201.5" y="226.5"/><rect fill="#FEFECE" height="5" style="stroke: #A80036; stroke-width: 1.5;" width="10" x="201.5" y="247.7969"/><text fill="#000000" font-family="sans-serif" font-size="14" lengthAdjust="spacingAndGlyphs" textLength="53" x="216.5" y="244.4951">Camera</text><!--MD5=[f7681d47643c80ad31071fdae7794efa]
entity RPI_BT--><rect fill="#FEFECE" filter="url(#fxofxc9ztlgpa)" height="36.2969" style="stroke: #A80036; stroke-width: 1.5;" width="88" x="62" y="221.5"/><rect fill="#FEFECE" height="5" style="stroke: #A80036; stroke-width: 1.5;" width="10" x="57" y="226.5"/><rect fill="#FEFECE" height="5" style="stroke: #A80036; stroke-width: 1.5;" width="10" x="57" y="247.7969"/><text fill="#000000" font-family="sans-serif" font-size="14" lengthAdjust="spacingAndGlyphs" textLength="68" x="72" y="244.4951">Bluetooth</text><!--MD5=[f336dfe0dd59b1ed6439fb507c404de2]
entity RPI_CONTROLLER_SERIAL--><rect fill="#FEFECE" filter="url(#fxofxc9ztlgpa)" height="52.5938" style="stroke: #A80036; stroke-width: 1.5;" width="78" x="69" y="326"/><rect fill="#FEFECE" height="5" style="stroke: #A80036; stroke-width: 1.5;" width="10" x="64" y="331"/><rect fill="#FEFECE" height="5" style="stroke: #A80036; stroke-width: 1.5;" width="10" x="64" y="368.5938"/><text fill="#000000" font-family="sans-serif" font-size="14" lengthAdjust="spacingAndGlyphs" textLength="37" x="79" y="348.9951">Serial</text><text fill="#000000" font-family="sans-serif" font-size="14" lengthAdjust="spacingAndGlyphs" textLength="58" x="79" y="365.292">[control]</text><!--MD5=[3f0843864e7be56816863728e9fea63f]
entity ESP_MOTOR--><rect fill="#FEFECE" filter="url(#fxofxc9ztlgpa)" height="36.2969" style="stroke: #A80036; stroke-width: 1.5;" width="60" x="499" y="575.5"/><rect fill="#FEFECE" height="5" style="stroke: #A80036; stroke-width: 1.5;" width="10" x="494" y="580.5"/><rect fill="#FEFECE" height="5" style="stroke: #A80036; stroke-width: 1.5;" width="10" x="494" y="601.7969"/><text fill="#000000" font-family="sans-serif" font-size="14" lengthAdjust="spacingAndGlyphs" textLength="40" x="509" y="598.4951">Motor</text><!--MD5=[936a4d00798a9ae90b69fdea962329ea]
entity ESP_TELEMETRY--><rect fill="#FEFECE" filter="url(#fxofxc9ztlgpa)" height="36.2969" style="stroke: #A80036; stroke-width: 1.5;" width="89" x="603.5" y="462.5"/><rect fill="#FEFECE" height="5" style="stroke: #A80036; stroke-width: 1.5;" width="10" x="598.5" y="467.5"/><rect fill="#FEFECE" height="5" style="stroke: #A80036; stroke-width: 1.5;" width="10" x="598.5" y="488.7969"/><text fill="#000000" font-family="sans-serif" font-size="14" lengthAdjust="spacingAndGlyphs" textLength="69" x="613.5" y="485.4951">Telemetry</text><!--MD5=[5c70b5f2f20b53962668ac725ee67036]
entity ESP_SERIAL_CONTROL--><rect fill="#FEFECE" filter="url(#fxofxc9ztlgpa)" height="52.5938" style="stroke: #A80036; stroke-width: 1.5;" width="78" x="490" y="454"/><rect fill="#FEFECE" height="5" style="stroke: #A80036; stroke-width: 1.5;" width="10" x="485" y="459"/><rect fill="#FEFECE" height="5" style="stroke: #A80036; stroke-width: 1.5;" width="10" x="485" y="496.5938"/><text fill="#000000" font-family="sans-serif" font-size="14" lengthAdjust="spacingAndGlyphs" textLength="37" x="500" y="476.9951">Serial</text><text fill="#000000" font-family="sans-serif" font-size="14" lengthAdjust="spacingAndGlyphs" textLength="58" x="500" y="493.292">[control]</text><!--MD5=[a37be520d8b71e1e5fcafa8a84d931e1]
entity ESP_SERIAL_TELEMETRY--><rect fill="#FEFECE" filter="url(#fxofxc9ztlgpa)" height="52.5938" style="stroke: #A80036; stroke-width: 1.5;" width="95" x="596.5" y="567"/><rect fill="#FEFECE" height="5" style="stroke: #A80036; stroke-width: 1.5;" width="10" x="591.5" y="572"/><rect fill="#FEFECE" height="5" style="stroke: #A80036; stroke-width: 1.5;" width="10" x="591.5" y="609.5938"/><text fill="#000000" font-family="sans-serif" font-size="14" lengthAdjust="spacingAndGlyphs" textLength="37" x="606.5" y="589.9951">Serial</text><text fill="#000000" font-family="sans-serif" font-size="14" lengthAdjust="spacingAndGlyphs" textLength="75" x="606.5" y="606.292">[telemetry]</text><!--MD5=[c54e88b4db767b9bc55e081b70d70841]
link DS_BT to RPI_BT--><path d="M106,95.01 C106,95.01 106,216.41 106,216.41 " fill="none" id="DS_BT-&gt;RPI_BT" style="stroke: #A80036; stroke-width: 1.0;"/><polygon fill="#A80036" points="106,221.41,110,212.41,106,216.41,102,212.41,106,221.41" style="stroke: #A80036; stroke-width: 1.0;"/><!--MD5=[971c775c415c1ed7b36d2ce558fbcc04]
link RPI_BT to RPI_CONTROLLER_SERIAL--><path d="M108,257.66 C108,257.66 108,320.96 108,320.96 " fill="none" id="RPI_BT-&gt;RPI_CONTROLLER_SERIAL" style="stroke: #A80036; stroke-width: 1.0;"/><polygon fill="#A80036" points="108,325.96,112,316.96,108,320.96,104,316.96,108,325.96" style="stroke: #A80036; stroke-width: 1.0;"/><!--MD5=[567e0cff1f2f8af472424c266d581d98]
link RPI_CONTROLLER_SERIAL to ESP_SERIAL_CONTROL--><path d="M108,379.1 C108,410.64 108,459 108,459 C108,459 484.77,459 484.77,459 " fill="none" id="RPI_CONTROLLER_SERIAL-&gt;ESP_SERIAL_CONTROL" style="stroke: #A80036; stroke-width: 1.0;"/><polygon fill="#A80036" points="489.77,459,480.77,455,484.77,459,480.77,463,489.77,459" style="stroke: #A80036; stroke-width: 1.0;"/><!--MD5=[23217a99241e37ed461007c7988b296d]
link ESP_SERIAL_TELEMETRY to RPI_STREAMER_SERIAL--><path d="M600,566.93 C600,484.72 600,240 600,240 C600,240 414.59,240 414.59,240 " fill="none" id="ESP_SERIAL_TELEMETRY-&gt;RPI_STREAMER_SERIAL" style="stroke: #A80036; stroke-width: 1.0;"/><polygon fill="#A80036" points="409.59,240,418.59,244,414.59,240,418.59,236,409.59,240" style="stroke: #A80036; stroke-width: 1.0;"/><!--MD5=[f7ed9912988da89f6d1638ddec134e4f]
link RPI_CAMERA to RPI_STREAMER_WS_SERVER--><path d="M269,257.66 C269,257.66 269,320.96 269,320.96 " fill="none" id="RPI_CAMERA-&gt;RPI_STREAMER_WS_SERVER" style="stroke: #A80036; stroke-width: 1.0;"/><polygon fill="#A80036" points="269,325.96,273,316.96,269,320.96,265,316.96,269,325.96" style="stroke: #A80036; stroke-width: 1.0;"/><!--MD5=[7b36e7f9a2a72b3da24a795fe94ef85d]
link RPI_STREAMER_SERIAL to RPI_STREAMER_WS_SERVER--><path d="M336,266.28 C336,266.28 336,320.91 336,320.91 " fill="none" id="RPI_STREAMER_SERIAL-&gt;RPI_STREAMER_WS_SERVER" style="stroke: #A80036; stroke-width: 1.0;"/><polygon fill="#A80036" points="336,325.91,340,316.91,336,320.91,332,316.91,336,325.91" style="stroke: #A80036; stroke-width: 1.0;"/><!--MD5=[cce171226fea5548e527bf56e43fa794]
link RPI_STREAMER_WS_SERVER to RPI_WEB--><path d="M308,379.02 C308,379.02 308,457.27 308,457.27 " fill="none" id="RPI_STREAMER_WS_SERVER-&gt;RPI_WEB" style="stroke: #A80036; stroke-width: 1.0;"/><polygon fill="#A80036" points="308,462.27,312,453.27,308,457.27,304,453.27,308,462.27" style="stroke: #A80036; stroke-width: 1.0;"/><!--MD5=[1e8f79afab5e5117a0766866f0cf7723]
link ESP_SERIAL_CONTROL to ESP_MOTOR--><path d="M529,507.28 C529,507.28 529,570.37 529,570.37 " fill="none" id="ESP_SERIAL_CONTROL-&gt;ESP_MOTOR" style="stroke: #A80036; stroke-width: 1.0;"/><polygon fill="#A80036" points="529,575.37,533,566.37,529,570.37,525,566.37,529,575.37" style="stroke: #A80036; stroke-width: 1.0;"/><!--MD5=[4f49f612f8c9ec72cefd344b892ec17f]
link ESP_TELEMETRY to ESP_SERIAL_TELEMETRY--><path d="M647.5,498.66 C647.5,498.66 647.5,561.96 647.5,561.96 " fill="none" id="ESP_TELEMETRY-&gt;ESP_SERIAL_TELEMETRY" style="stroke: #A80036; stroke-width: 1.0;"/><polygon fill="#A80036" points="647.5,566.96,651.5,557.96,647.5,561.96,643.5,557.96,647.5,566.96" style="stroke: #A80036; stroke-width: 1.0;"/><!--MD5=[d80851c116686edd9e1ab083bcc669b8]
@startuml iron-components
skinparam linetype ortho

package "DualSense" {
    component "Bluetooth" as DS_BT
}

package "Raspberry Pi 2" {
    component "Streamer" as RPI_STREAMER {
        component "WebSocket\nServer [/]" as RPI_STREAMER_WS_SERVER
        component "Serial\n[telemetry]" as RPI_STREAMER_SERIAL
        component "Camera" as RPI_CAMERA
    }
    component "Controller" as RPI_CONTROLLER {
        component "Bluetooth" as RPI_BT
        component "Serial\n[control]" as RPI_CONTROLLER_SERIAL
    }
    component "Web page" as RPI_WEB
}

package "ESP32-S3" {
    component "Motor" as ESP_MOTOR
    component "Telemetry" as ESP_TELEMETRY

    component "Serial\n[control]" as ESP_SERIAL_CONTROL
    component "Serial\n[telemetry]" as ESP_SERIAL_TELEMETRY
}

DS_BT - -> RPI_BT
RPI_BT - -> RPI_CONTROLLER_SERIAL

RPI_CONTROLLER_SERIAL - -> ESP_SERIAL_CONTROL
ESP_SERIAL_TELEMETRY - -> RPI_STREAMER_SERIAL
RPI_CAMERA - -> RPI_STREAMER_WS_SERVER
RPI_STREAMER_SERIAL - -> RPI_STREAMER_WS_SERVER
RPI_STREAMER_WS_SERVER - -> RPI_WEB

ESP_SERIAL_CONTROL - -> ESP_MOTOR
ESP_TELEMETRY - -> ESP_SERIAL_TELEMETRY

@enduml

PlantUML version 1.2020.02(Sun Mar 01 10:22:07 UTC 2020)
(GPL source distribution)
Java Runtime: OpenJDK Runtime Environment
JVM: OpenJDK 64-Bit Server VM
Java Version: 17.0.18+8-Debian-1deb12u1
Operating System: Linux
Default Encoding: UTF-8
Language: en
Country: US
--></g></svg>